<?xml version="1.0" encoding="utf-8"?>
<!-- Generator: Adobe Illustrator 17.0.0, SVG Export Plug-In . SVG Version: 6.00 Build 0)  -->
<!DOCTYPE svg PUBLIC "-//W3C//DTD SVG 1.1//EN" "http://www.w3.org/Graphics/SVG/1.1/DTD/svg11.dtd">
<svg version="1.1" id="Layer_1" xmlns="http://www.w3.org/2000/svg" xmlns:xlink="http://www.w3.org/1999/xlink" x="0px" y="0px"
	 width="960px" height="960px" viewBox="0 0 960 960" enable-background="new 0 0 960 960" xml:space="preserve">
<g>
	<path fill="#888888" d="M372.473,715.183l-1.892,2.409c-7.226,9.118-14.624,18.581-22.71,27.355
		c-2.237,2.581-5.677,3.957-8.946,3.957c-0.344,0-0.86-0.172-1.204-0.172v67.613c0,19.269,14.108,35.097,32.688,38.021
		c-1.72-2.237-2.753-5.161-2.581-8.258l3.269-44.043h-10.839l14.108-89.462L372.473,715.183z M411.871,343.398
		c29.075-7.742,46.28-37.333,38.71-66.409c-7.742-29.075-37.333-46.28-66.409-38.71c-29.075,7.742-46.28,37.333-38.71,66.409
		C353.032,333.763,382.796,351.14,411.871,343.398z M411.699,849.032l-7.398-46.796h-6.194l-7.398,46.796v0.172
		c-0.344,2.237-1.376,4.301-2.925,6.021h26.839C413.247,853.505,412.215,851.441,411.699,849.032L411.699,849.032z M572.731,372.129
		c27.871-7.398,44.387-35.957,37.161-63.656c-7.398-27.871-35.785-44.387-63.656-37.161c-27.871,7.226-44.387,35.785-37.161,63.656
		C516.301,362.839,544.86,379.527,572.731,372.129z M711.398,575.828c-6.882-14.452-14.28-28.387-21.849-42.495
		c-7.398-14.108-15.312-27.871-22.882-41.806c-7.914-13.763-15.828-27.527-23.914-41.29c-6.538-11.011-13.419-22.022-20.301-33.032
		c-7.054-15.14-23.054-26.323-39.742-26.323h-46.452c-19.957,0-38.71,15.656-42.839,35.097c-2.237-9.979-3.613-16.86-3.957-18.409
		c-8.602-38.538-41.634-45.763-52.301-45.763h-82.409c-10.667,0-43.699,7.054-52.301,45.763
		c-2.065,9.29-39.914,184.774-42.667,203.183c-1.548,10.495,4.645,20.989,15.14,24.43c11.699,3.785,24.258-2.581,28.215-14.28
		c5.849-17.72,11.011-35.441,16.172-53.333c2.581-9.118,11.527-41.118,18.581-66.753v215.226
		c11.527-17.032,28.731-40.774,29.763-42.323c2.409-3.269,9.462-13.247,22.882-13.247h22.022c9.634,0,15.828,4.989,19.785,9.29l0,0
		c0,0,0,0,0.172,0.172c0.344,0.344,0.688,0.688,0.86,1.032c4.301,4.817,20.989,22.882,33.204,36.129
		c2.925-6.022,7.226-14.968,12.043-25.29c7.398-15.828,15.828-34.409,22.021-47.828c4.817-10.323,8.258-17.548,8.774-18.409
		c1.892-2.409,8.43-12.903,20.817-16.172c2.409-0.688,4.817-1.032,7.57-1.032h29.419c17.72,0,26.323,14.28,28.387,17.204
		c1.204,1.548,16.172,25.118,30.452,48.172c3.957,6.366,7.742,12.559,11.355,18.237h23.914l-32.516-156.903
		c6.882,10.667,13.763,21.505,20.817,32c8.774,13.247,17.72,26.323,27.183,39.226c5.677,7.742,16.172,10.667,25.118,6.366
		C711.914,598.022,716.215,585.979,711.398,575.828z M407.742,654.796c-13.591,3.613-27.527-4.473-31.14-18.065
		s4.473-27.527,18.065-31.14c13.591-3.613,27.527,4.473,31.14,18.065C429.591,637.247,421.333,651.183,407.742,654.796z
		 M560.86,587.355c-13.935,3.613-28.043-1.893-35.957-12.903c-2.409-3.269-4.301-7.054-5.333-11.183
		c-1.376-5.333-1.376-10.667-0.172-15.828c2.581-12.043,11.527-22.194,24.258-25.634c18.065-4.817,36.645,6.021,41.462,24.086
		C589.763,564.129,578.925,582.538,560.86,587.355z M480,733.591c-2.925,4.817-9.462,6.366-14.28,3.441
		c-10.667-6.538-23.226-21.677-33.72-30.28l15.14,95.484h-15.312l3.269,44.043c0.172,3.269-1.032,6.538-3.269,8.774h80.86
		c-3.613-3.097-5.677-7.914-5.333-12.903l9.634-129.204v-38.538c-1.204,2.065-2.753,4.817-4.473,7.914
		C503.57,697.979,487.742,724.645,480,733.591z M587.355,658.409v54.538l9.634,129.204c0.344,4.817-1.548,9.29-4.817,12.387
		c18.925-2.409,33.72-18.409,33.72-38.194V713.979l-22.194-32L587.355,658.409z M566.194,845.763l-13.935-87.914l-13.935,87.914
		v0.172c-0.688,3.785-2.581,6.882-5.333,9.118h38.366C568.774,852.817,566.71,849.548,566.194,845.763L566.194,845.763z"/>
</g>
</svg>
